<svg width="389" height="131" viewBox="0 0 389 131" fill="none" xmlns="http://www.w3.org/2000/svg">
<g clip-path="url(#clip0)">
<ellipse cx="47.2282" cy="48.087" rx="9.44565" ry="8.58696" fill="white"/>
<path d="M118.506 100.974C111.106 100.974 106.084 98.6103 105.291 90.2067H104.763C102.94 93.5099 100.266 96.2721 97.0155 98.2102C93.7647 100.148 90.0537 101.193 86.2628 101.236C83.9228 101.347 81.5846 100.983 79.3903 100.168C77.196 99.3528 75.1914 98.1029 73.4982 96.4941C71.8051 94.8853 70.4587 92.9514 69.5409 90.8096C68.6231 88.6679 68.153 86.3632 68.1592 84.0353C68.1592 73.2683 75.0307 68.2787 92.0771 64.3395L104.499 61.4508V49.8959C103.838 43.8558 101.327 38.2097 94.72 38.2097C93.5387 38.1565 92.3614 38.3815 91.2842 38.8662L91.02 55.6733C87.5613 56.9754 83.8817 57.5996 80.1842 57.5116C74.2378 57.5116 70.2735 54.8855 70.2735 49.108C70.2735 40.1793 86.7914 30.7253 105.159 30.7253C119.959 30.8566 129.5 36.7653 129.5 52.7846C129.5 104.572 134.072 100.974 134.072 100.974H118.506ZM104.499 87.0554V66.5717C95.3807 69.1978 91.8128 74.1874 91.8128 79.3083C91.8128 85.2171 95.3807 88.4997 100.138 88.4997C101.707 88.4798 103.231 87.975 104.499 87.0554Z" fill="#1D73A5"/>
<path d="M142.713 100.974V41.0987C142.736 37.1861 143.045 33.2804 143.638 29.4125C145.734 21.0337 150.585 13.5899 157.421 8.26169C164.258 2.9335 172.69 0.0258904 181.378 0C192.214 0 203.499 4.98962 203.499 13.2619C203.499 22.9785 193.324 24.6855 186.056 22.9785L181.775 8.92879C181.119 7.91944 180.219 7.08988 179.157 6.5163C178.095 5.94272 176.905 5.64351 175.696 5.64614C171.071 5.64614 167.768 9.97923 168.032 21.4028L168.296 32.9577H185.607V41.0987H168.428V100.974H142.713Z" fill="#1D73A5"/>
<path d="M185.001 66.1765C185.189 56.9798 188.905 48.2017 195.389 41.6366C201.873 35.0714 210.636 31.2149 219.886 30.8553C238.915 30.8553 246.843 42.5415 249.09 60.6617H207.148C207.461 67.0919 210.261 73.1535 214.964 77.5817C219.666 82.0099 225.908 84.4626 232.387 84.428C237.827 84.3719 243.174 83.0211 247.98 80.4888L249.962 83.3776C242.43 93.0942 231.726 100.973 217.983 100.973C198.558 100.973 185.001 86.0037 185.001 66.1765ZM206.936 55.4095H224.643C224.115 44.905 220.679 36.7641 215.393 36.7641C211.112 36.7641 207.28 41.7537 207.016 55.4095H206.936Z" fill="#1D73A5"/>
<path d="M263.706 31.9112C273.617 31.9112 283.924 42.4156 283.924 73.6664C283.959 81.451 283.34 89.225 282.074 96.9075H283.131C292.249 81.1508 297.403 69.5959 297.403 56.5966C297.504 48.8098 295.045 41.2029 290.399 34.9312C293.812 32.5501 297.858 31.2252 302.028 31.1233C306.785 31.1233 311.938 34.5373 311.938 43.86C311.938 67.6263 272.295 130.522 237.938 130.522C230.538 130.522 224.645 126.057 224.645 118.179C224.609 116.646 224.885 115.121 225.455 113.696C226.025 112.271 226.878 110.974 227.963 109.884C229.048 108.793 230.343 107.931 231.771 107.348C233.199 106.766 234.73 106.475 236.273 106.493C243.145 106.493 247.505 111.482 249.752 122.512H250.809C257.68 117.916 263.072 102.685 263.072 84.5648C262.978 69.0971 259.411 53.8452 252.633 39.9208C253.221 37.497 254.659 35.3604 256.687 33.893C258.716 32.4256 261.204 31.7231 263.706 31.9112Z" fill="#1D73A5"/>
<path d="M362.495 101.236V57.2484C362.495 49.8953 358.398 45.1683 351.923 45.2996C349.755 45.3168 347.624 45.8575 345.712 46.8753V101.236H319.945V38.2091L343.995 30.3308V42.6735H344.259C348.884 37.9465 357.738 30.5934 368.309 30.5934C380.202 30.5934 388.13 37.5526 388.13 50.2892V100.973L362.495 101.236Z" fill="#1D73A5"/>
<path d="M62.2393 80.3575C57.6901 82.6799 52.6826 83.9799 47.5715 84.1654C34.3572 84.1654 23.2572 74.4488 23.2572 53.1773C23.2572 43.3293 27.0893 35.9762 33.3 35.9762C34.3473 35.9603 35.3867 36.157 36.3547 36.5544C37.3227 36.9518 38.1988 37.5414 38.9293 38.2872C37.1678 39.3237 35.7004 40.7882 34.6648 42.543C33.6293 44.2978 33.0596 46.2853 33.0093 48.319C33.0093 55.1994 39.4843 60.793 47.4922 60.793C50.6384 60.9379 53.7433 60.0348 56.3143 58.227C58.8853 56.4192 60.7752 53.8102 61.6843 50.8138C61.6843 50.6562 61.6843 50.4986 61.6843 50.3411C61.8791 49.2113 61.8791 48.0569 61.6843 46.9271C60.7858 38.2084 50.7958 30.8553 37 30.8553C17.7072 30.8553 0 44.6424 0 66.5704C0 85.6098 12.4214 100.973 33.5643 100.973C43.8715 100.973 55.3679 96.2455 63.8251 83.115L62.2393 80.3575ZM47.36 40.9658C49.4552 40.8363 51.5165 41.5377 53.0919 42.9161C56.1673 45.6068 56.1514 50.9855 53.0569 53.6542C51.4844 55.0104 49.4381 55.6975 47.36 55.567C45.282 55.6975 43.2357 55.0104 41.6632 53.6542C38.5757 50.9915 38.5796 45.6577 41.6719 43.0005C43.2436 41.6499 45.1165 40.9658 47.2942 40.9658H47.36Z" fill="#1D73A5"/>
<path d="M47.4652 51.5217C49.2313 51.5217 50.663 50.0991 50.663 48.3441C50.663 46.5892 49.2313 45.1665 47.4652 45.1665C45.6991 45.1665 44.2673 46.5892 44.2673 48.3441C44.2673 50.0991 45.6991 51.5217 47.4652 51.5217Z" fill="#1D73A5"/>
</g>
<defs>
<clipPath id="clip0">
<path d="M0 0H388.13V130.522H0V0Z" fill="white"/>
</clipPath>
</defs>
</svg>
