<?xml version="1.0" encoding="utf-8"?>
<!-- Generator: Adobe Illustrator 22.0.1, SVG Export Plug-In . SVG Version: 6.00 Build 0)  -->
<svg version="1.1" id="Layer_1" xmlns="http://www.w3.org/2000/svg" xmlns:xlink="http://www.w3.org/1999/xlink" x="0px" y="0px"
	 viewBox="0 0 200 102" style="enable-background:new 0 0 200 102;" xml:space="preserve">
<style type="text/css">
	.st0{fill:#0586BB;}
	.st1{fill:#CE202B;}
	.st2{fill:#FFFFFF;}
</style>
<g>
	<path class="st0" d="M15,77.5l0.3,12.9c0,1.6-0.5,3-1.5,4.2c-1.2,1.4-3,2.1-5.2,2.1c-0.9,0-1.7-0.1-2.5-0.4
		c-0.7-0.3-1.3-0.7-1.8-1.2S3.4,94,3.2,93.3c-0.3-0.7-0.4-1.5-0.4-2.5c0-1.1,0.2-2.3,0.7-3.6l1.7,0.5c-0.4,1.1-0.6,2.1-0.6,3
		c0,0.6,0.1,1.1,0.3,1.6c0.2,0.5,0.5,0.9,0.8,1.2C6,93.9,6.5,94.2,7,94.4c0.5,0.2,1.1,0.3,1.7,0.3c0.7,0,1.3-0.1,1.8-0.3
		c0.6-0.2,1.1-0.4,1.5-0.8c0.4-0.3,0.7-0.7,1-1.2c0.2-0.5,0.4-1,0.4-1.6l-0.5-13.3H15L15,77.5z"/>
	<path class="st0" d="M22.7,92.3h-1.4c-2.6,0-3.9-1.5-3.9-4.6V77.5h2.2v10c0,0.9,0.1,1.5,0.4,1.9c0.3,0.5,0.9,0.7,1.7,0.7
		c6.1,0,12.2,0,18.2,0H40c0.8,0,1.3-0.2,1.5-0.5c0.1-0.2,0.2-0.7,0.2-1.6v-2.7h2v2.1c0,1.1,0.2,1.8,0.6,2.2c0.3,0.3,0.9,0.5,1.8,0.5
		h0.2l0,0c5.9,0,11.8,0,17.7,0c0.9,0,1.3-0.4,1.3-1.2v-3.4h1.9v1c0,2.5,0.7,3.8,2,3.8c0.6,0,1-0.4,1-1.3v-3.4H72v1
		c0,2.5,0.7,3.8,2.1,3.8c0.7,0,1-0.4,1-1.3v-3.5h1.8v2.1c0,1.7,0.7,2.5,2,2.5c3.6,0,5.1,0,8.7,0c1,0,1.4-0.3,1.4-1
		c0-0.3-0.1-0.6-0.3-1l-1.2-2.1l1.7-1.2c0.7,1.2,1.1,2,1.2,2.3c0.4,0.8,0.6,1.5,0.6,2c0,0.8-0.2,1.5-0.7,2.1
		c-0.6,0.7-1.5,1.1-2.6,1.1c-3.4,0-4.7,0-8,0h-0.4c-0.5,0-1.1-0.1-1.6-0.4c-0.6-0.3-1-0.6-1.2-1.1c-0.6,1.1-1.4,1.6-2.5,1.6
		s-1.9-0.5-2.5-1.6c-0.6,1.1-1.4,1.6-2.3,1.6c-1.2,0-2.1-0.5-2.6-1.6c-0.5,1-1.3,1.5-2.4,1.5c-5.9,0-11.9,0-17.8,0h-0.3l0,0
		c-1.3,0-2.3-0.5-2.8-1.5c-0.6,1-1.5,1.5-2.6,1.5C34.5,92.3,28.6,92.3,22.7,92.3L22.7,92.3z M89.5,83h-2v-2h2V83L89.5,83z M70.8,83
		h-2v-2h2V83L70.8,83z M72.2,80.4h-2v-2h2V80.4L72.2,80.4z M73.6,83h-2v-2h2V83L73.6,83z M43.7,83h-2v-2h2V83L43.7,83z"/>
	<path class="st0" d="M194.2,89.1c0,0.8-0.2,1.5-0.7,2.1c-0.6,0.7-1.5,1.1-2.6,1.1c-9.1,0-18.1,0-27.2,0l0,0l0,0
		c-1.3,0-2.3-0.5-2.8-1.5c-0.6,1-1.5,1.5-2.6,1.5c-8.8,0-17.7,0-26.5,0l0,0l0,0c-1.3,0-2.3-0.5-2.8-1.5c-0.6,1-1.5,1.5-2.6,1.5
		c-6.2,0-15.6,0-21.8,0c-1.2,0-2.1-0.4-2.8-1.3c-0.1,0.5-0.3,1.1-0.8,1.7c-1.3,2-4.3,4.2-8.8,6.5l-1-1.8c4.2-2.2,6.9-4.2,8.2-6.1
		c0.4-0.5,0.6-1.1,0.6-1.5c0-0.5-0.1-0.9-0.4-1.5L97.9,86l1.8-1.1l1.5,2.9c0.8,1.5,1.8,2.2,3.2,2.2c5.9,0,15.1,0,21,0h0.2
		c0.8,0,1.3-0.2,1.5-0.5c0.1-0.2,0.2-0.7,0.2-1.6v-2.7h2v2.1c0,1.1,0.2,1.8,0.6,2.2c0.3,0.3,0.9,0.5,1.8,0.5h0.2l0,0
		c8.5,0,17,0,25.5,0h0.2c0.8,0,1.3-0.2,1.5-0.5c0.1-0.2,0.2-0.7,0.2-1.6v-2.7h2v2.1c0,1.1,0.2,1.8,0.6,2.2c0.3,0.3,0.9,0.5,1.8,0.5
		h0.2l0,0c8.9,0,17.9,0,26.8,0c1,0,1.4-0.3,1.4-1c0-0.3-0.1-0.6-0.3-1l-1.2-2.1l1.7-1.2c0.7,1.2,1.1,2,1.2,2.3
		C194,87.9,194.2,88.5,194.2,89.1L194.2,89.1z M128,83.6h-2v-2h2V83.6L128,83.6z M130.8,83.6h-2v-2h2V83.6L130.8,83.6z M161.4,83h-2
		v-2h2V83L161.4,83z M191.4,96.5h-2v-2h2V96.5L191.4,96.5z M194.1,96.5h-2v-2h2V96.5L194.1,96.5z"/>
	<polygon class="st0" points="196.2,92.3 198.3,92.3 198.3,77.5 196.2,77.5 	"/>
</g>
<g>
	<path class="st1" d="M90,2H3.5C3.3,2,3.1,2.2,3.1,2.4v67.4c0,0.2,0.2,0.4,0.4,0.4H90c0.2,0,0.4-0.2,0.4-0.4V2.4
		C90.4,2.2,90.2,2,90,2L90,2z"/>
	<path class="st0" d="M93.3,2h104c0.2,0,0.4,0.2,0.4,0.4v67.4c0,0.2-0.2,0.4-0.4,0.4h-104c-0.2,0-0.4-0.2-0.4-0.4V2.4
		C92.9,2.2,93.1,2,93.3,2L93.3,2z"/>
</g>
<g>
	<path class="st2" d="M87.6,51.4V20.6c0-0.3,0.2-0.5,0.5-0.5h7.5c0.2,0.1,0.3,0.2,0.3,0.4v30.8c0,0.3-0.2,0.5-0.5,0.5h-7.5
		C87.7,51.8,87.6,51.7,87.6,51.4L87.6,51.4z"/>
	<path class="st2" d="M99.5,51.5V20.7c0-0.3,0.2-0.5,0.5-0.5h13c1.8,0,3.4,0.3,4.9,0.7c1.4,0.5,2.6,1.2,3.6,2.1s1.7,2,2.2,3.3
		c0.5,1.2,0.8,2.6,0.8,4.1c0,2-0.5,3.8-1.4,5.3c-0.9,1.6-2.2,2.7-3.9,3.6l5.9,12.1c0.1,0.2,0.1,0.3,0,0.4c-0.1,0.1-0.2,0.2-0.3,0.2
		h-8.1c-0.3,0-0.6-0.2-0.7-0.5l-5-10.8h-3c-0.2,0-0.3,0.1-0.3,0.3v10.6c0,0.3-0.2,0.5-0.5,0.5h-7.3C99.6,52,99.5,51.8,99.5,51.5
		L99.5,51.5z M108,27.2c-0.2,0-0.3,0.1-0.3,0.3v6.2c0,0.2,0.1,0.3,0.3,0.3h4.4c1.2,0,2.1-0.3,2.8-0.9c0.7-0.6,1-1.4,1-2.5
		c0-1-0.3-1.8-1-2.5c-0.7-0.6-1.6-0.9-2.8-0.9L108,27.2L108,27.2L108,27.2z"/>
	<path class="st2" d="M137.7,20.1h7.6c0.3,0,0.5,0.2,0.6,0.5l10.8,30.8c0.1,0.3,0,0.5-0.3,0.5h-7.7c-0.3,0-0.5-0.2-0.6-0.5l-1.5-4.9
		h-10.3l-1.5,4.9c-0.1,0.3-0.3,0.5-0.6,0.5h-7.7c-0.3,0-0.4-0.2-0.3-0.5l11-30.8C137.2,20.3,137.4,20.1,137.7,20.1L137.7,20.1z
		 M141.4,29.8l-3.1,9.9h6.2l-2.9-9.9L141.4,29.8L141.4,29.8L141.4,29.8z"/>
	<path class="st2" d="M157.9,51.4V20.6c0-0.3,0.2-0.5,0.5-0.5h6.9c0.4,0,0.7,0.2,0.8,0.5l9.6,18h0.2v-18c0-0.3,0.2-0.5,0.5-0.5h6.5
		c0.3,0,0.5,0.2,0.5,0.5v30.8c0,0.3-0.2,0.5-0.5,0.5H176c-0.4,0-0.7-0.2-0.8-0.5l-9.5-17.9h-0.3v17.9c0,0.3-0.2,0.5-0.5,0.5h-6.5
		C158,51.9,157.9,51.7,157.9,51.4L157.9,51.4z"/>
	<path class="st2" d="M24.9,44.8c0,1,0.1,1.8,0.4,2.5c0.2,0.7,0.6,1.2,1,1.6c0.4,0.4,0.9,0.7,1.4,0.9s1.1,0.3,1.6,0.3
		c2.8,0,4.2-1.7,4.2-5v-14c0-0.3,0.2-0.5,0.5-0.5h6.9c0.3,0,0.5,0.2,0.5,0.5v14.4c0,2.1-0.3,3.8-1,5.3c-0.7,1.4-1.6,2.6-2.7,3.5
		c-1.1,0.9-2.4,1.5-3.9,1.9s-3,0.6-4.6,0.6s-3.1-0.2-4.6-0.6c-1.5-0.4-2.8-1.1-3.9-2s-2-2.1-2.7-3.5c-0.7-1.5-1-3.2-1-5.4
		c0-1.4,0.2-2.9,0.6-4.5s0.9-3.1,1.7-4.4c0.1-0.2,0.4-0.3,0.7-0.2l6.2,1.7c0.2,0.1,0.3,0.2,0.3,0.3s0,0.2,0,0.4
		c-0.4,0.9-0.8,1.8-1.1,2.8C25.1,42.3,24.9,43.5,24.9,44.8L24.9,44.8z"/>
	<path class="st2" d="M53.6,46.7c0,0.3-0.2,0.5-0.5,0.5h-7.3c-0.3,0-0.5-0.2-0.5-0.5V20.6c0-0.3,0.2-0.5,0.5-0.5h7.3
		c0.3,0,0.5,0.2,0.5,0.5V46.7L53.6,46.7z"/>
	<path class="st2" d="M58.5,27.6c0-0.3,0.2-0.5,0.5-0.5h7c0.3,0,0.5,0.2,0.5,0.5v10.6c0,0.7,0.3,1.2,0.8,1.6
		c0.6,0.4,1.4,0.6,2.4,0.6h4c0.8,0,1.3-0.2,1.7-0.5c0.4-0.4,0.5-1,0.5-1.9V27.6c0-0.3,0.2-0.5,0.5-0.5h7.1c0.3,0,0.5,0.2,0.5,0.5
		v13.6c0,2-0.4,3.5-1.3,4.5c-0.8,0.9-2.2,1.4-4.2,1.4H71c-1.1,0-1.9-0.1-2.7-0.3c-0.7-0.2-1.3-0.7-1.9-1.3v0.6
		c0,3.7-0.8,6.4-2.3,8.1s-4,2.6-7.5,2.6H54c-0.3,0-0.5-0.2-0.5-0.5v-5.7c0-0.3,0.2-0.5,0.5-0.5h1c1.5,0,2.5-0.4,2.9-1.3
		c0.4-0.8,0.6-2.1,0.6-3.7V27.6L58.5,27.6z"/>
	<path class="st2" d="M78.6,51.1h5c0.2,0,0.3,0.2,0.3,0.3v5c0,0.2-0.2,0.3-0.3,0.3h-5c-0.2,0-0.3-0.2-0.3-0.3v-5
		C78.3,51.3,78.4,51.1,78.6,51.1L78.6,51.1z"/>
	<path class="st2" d="M71.2,51.1h5c0.2,0,0.3,0.2,0.3,0.3v5c0,0.2-0.2,0.3-0.3,0.3h-5c-0.2,0-0.3-0.2-0.3-0.3v-5
		C70.9,51.3,71,51.1,71.2,51.1L71.2,51.1z"/>
	<path class="st2" d="M28.1,20.1h5c0.2,0,0.3,0.2,0.3,0.3v5c0,0.2-0.2,0.3-0.3,0.3h-5c-0.2,0-0.3-0.2-0.3-0.3v-5
		C27.8,20.3,27.9,20.1,28.1,20.1L28.1,20.1z"/>
</g>
</svg>
